<?xml version="1.0" encoding="UTF-8" standalone="no"?>
<svg
   height="512"
   width="1550"
   viewBox="0 0 2066.6666 682.66667"
   version="1.1"
   id="svg1"
   xmlns="http://www.w3.org/2000/svg"
   xmlns:svg="http://www.w3.org/2000/svg">
  <defs
     id="defs1" />
  <path
     fill="#ff8c2e"
     d="m 177.93333,131.58333 c 7.9,-15.8 1.5,-34.999996 -14.3,-42.899996 -15.8,-7.9 -35,-1.5 -42.9,14.299996 l -85.899995,171.7 c -8.9,17.8 -13.5,37.4 -13.5,57.3 v 9.3 c 0,70.7 57.3,128 127.999995,128 h 72 8 v -0.3 c 35.2,-2.7 65.4,-22.8 82.1,-51.7 8.8,-15.3 3.60001,-34.9 -11.7,-43.7 -15.3,-8.8 -34.9,-3.6 -43.69999,11.7 -7,12 -19.9,20 -34.7,20 -22.1,0 -40,-17.9 -40,-40 0,-22.1 17.9,-40 40,-40 14.8,0 27.7,8 34.7,20 8.8,15.3 28.39999,20.5 43.69999,11.7 15.30001,-8.8 20.5,-28.4 11.7,-43.7 -12.8,-22.1 -33.6,-39.1 -58.4,-47.1 l 80.8,-22 c 17,-4.6 27.1,-22.2 22.5,-39.3 -4.6,-17.1 -22.2,-27.1 -39.3,-22.5 l -100.8,27.5 81.6,-68 c 13.6,-11.3 15.4,-31.5 4.1,-45.099996 -11.3,-13.6 -31.5,-15.4 -45.1,-4.1 l -101.9,84.899996 z m 326.8,419.4 c -7.9,15.8 -1.5,35 14.3,42.9 15.8,7.9 35,1.5 42.9,-14.3 l 85.9,-171.7 c 8.9,-17.8 13.5,-37.4 13.5,-57.2 v -9.3 c 0,-70.7 -57.3,-128 -128,-128 h -72 -8 v 0.3 c -35.2,2.7 -65.4,22.8 -82.1,51.7 -8.9,15.3 -3.6,34.9 11.7,43.7 15.3,8.8 34.9,3.6 43.7,-11.7 7,-12 19.9,-20 34.7,-20 22.1,0 40,17.9 40,40 0,22.1 -17.9,40 -40,40 -14.8,0 -27.7,-8 -34.7,-20 -8.9,-15.3 -28.4,-20.5 -43.7,-11.7 -15.3,8.8 -20.5,28.4 -11.7,43.7 12.8,22.1 33.6,39.1 58.4,47.1 l -80.8,22 c -17.1,4.7 -27.1,22.2 -22.5,39.3 4.6,17.1 22.2,27.1 39.3,22.5 l 100.7,-27.5 -81.6,68 c -13.6,11.30001 -15.4,31.5 -4.1,45.1 11.3,13.6 31.5,15.4 45.1,4.1 l 101.9,-84.89999 -23,46 z"
     id="path1"
     style="fill:#1967d2;fill-opacity:1" />
  <path
     style="fill:#1967d2;fill-opacity:1;stroke-width:1.33333"
     d="m 785.96001,273.47078 4.28819,178.29852 q 0.22569,12.18749 -8.57638,20.98957 -8.80208,8.57638 -21.21527,8.57638 h -4.96528 q -11.7361,0 -20.53818,-9.02777 -9.02777,-9.02777 -9.02777,-20.53818 V 253.83537 q 0,-23.02082 16.02429,-39.27081 16.0243,-16.0243 39.27082,-16.0243 h 0.67708 q 18.28124,0 32.95137,10.83333 14.67013,10.83333 19.8611,28.66318 l 46.94442,163.177 46.49303,-162.72561 q 4.96528,-17.82985 19.86111,-28.88888 14.89582,-11.28471 33.40276,-11.05902 h 0.67708 q 22.79512,0 38.81942,16.0243 16.4757,16.0243 16.4757,39.27081 V 451.7693 q 0,11.9618 -9.2535,20.76388 -9.2534,8.80207 -25.052,8.80207 h -0.4514 q -12.41322,0 -21.2153,-8.57638 -8.80208,-8.80208 -8.80208,-20.98957 l 4.0625,-178.29852 -48.97567,173.33324 q -4.2882,15.34722 -17.60416,25.05207 -13.31597,9.47916 -28.43749,9.47916 h -0.90277 q -15.57291,0 -28.2118,-9.70485 -12.86457,-9.93055 -17.15276,-24.82638 z m 355.69429,65.90274 q 0.4514,54.39234 23.4722,81.70135 23.0208,27.08332 55.9722,27.08332 32.9513,0 55.9722,-27.08332 23.2465,-27.30901 23.2465,-81.70135 0,-54.39233 -23.2465,-81.47565 -23.0209,-27.30901 -55.9722,-27.30901 -32.9514,0 -55.9722,27.30901 -23.0208,27.08332 -23.4722,81.47565 z m 82.8298,147.3784 h -6.9965 q -2.0313,0 -6.3195,-0.67708 -70.4166,-7.44792 -105.3992,-44.91318 -34.9827,-37.46525 -34.9827,-100.43397 0,-62.96872 39.0452,-102.69092 39.0451,-39.49651 101.3367,-45.36456 8.5764,-0.90278 11.059,-0.67708 2.257,0 8.3507,0.67708 64.3229,8.35069 100.2083,44.68748 40.3993,40.85067 40.1736,106.07633 0,81.92704 -62.5173,120.29508 l 20.5382,31.37151 q 7.4479,11.51041 4.5138,25.05207 -2.934,13.54166 -14.4444,20.98957 v 0.90278 q -11.5104,7.44791 -25.5035,4.51389 -26.4062,-5.86806 -31.5972,-26.40624 l -9.0277,-35.43401 z m 263.611,-37.91665 q 0,0 0.2257,0 43.3333,0 73.802,-27.9861 27.7604,-25.27776 27.7604,-97.49995 0,-41.97914 -27.7604,-67.4826 -30.4687,-27.9861 -73.802,-27.9861 0,0 -0.2257,0 -9.0278,0 -15.5729,6.31944 -6.3195,6.31945 -6.3195,16.0243 v 176.26727 q 0,9.25347 6.3195,15.79861 6.5451,6.54513 15.5729,6.54513 z m -63.1944,-250.06931 q 48.5242,-3.38542 63.8715,-3.38542 75.8333,0 125.7117,38.81942 49.8784,38.81943 49.8784,106.97912 0,61.38885 -41.9791,98.85411 -45.3646,39.49651 -126.1631,39.49651 -14.8959,0 -70.8681,-2.70833 -9.0277,-0.45139 -14.8958,-6.54514 -5.6423,-6.31944 -5.6423,-15.34721 v -234.7221 q 0,-8.57639 5.868,-14.89583 5.6424,-5.64236 14.2188,-6.54513 z m 299.722,281.44082 q -13.993,0 -23.9236,-9.70485 -9.7048,-9.93055 -9.7048,-23.9236 V 313.41867 q 0,-13.99304 9.9305,-23.92359 10.1563,-9.93056 23.6979,-9.93056 h 0.4514 q 13.5417,0 23.4722,9.93056 9.9306,9.93055 9.9306,23.92359 v 133.15966 q 0,13.99305 -9.9306,23.9236 -9.9305,9.93055 -23.4722,9.70485 z m 31.1458,-254.13181 q 0,14.67013 -10.3819,24.82638 -10.1562,10.15624 -24.375,10.15624 -14.4444,0 -24.375,-10.15624 -9.9305,-10.15625 -10.1562,-24.82638 0,-14.67013 10.1562,-24.60068 9.9306,-10.15625 24.375,-9.93055 13.9931,0 24.375,9.70485 10.3819,9.93055 10.3819,24.82638 z m 192.9687,228.62835 q 0,0 0,0.90278 0,7.8993 -4.0625,13.99305 -9.2534,12.41319 -44.4617,12.41319 -46.9445,0 -80.3472,-30.46874 -33.4028,-30.46873 -33.4028,-73.57635 0,-43.10761 33.4028,-73.57635 33.4027,-30.46873 80.3472,-30.46873 16.4756,0.45139 32.0485,4.51388 16.4757,5.41667 16.4757,22.34374 v 1.57986 q 0,11.51041 -8.125,18.05555 -9.0277,6.54513 -25.7291,3.38541 -16.7014,-3.38541 -37.9167,4.96528 -11.9618,4.51389 -18.9583,17.15277 -7.2222,12.86457 -7.2222,27.98609 v 2.48264 q 0,23.02082 15.5729,39.7222 15.5729,16.47569 36.5625,16.47569 8.5764,0.90278 18.9583,-0.90278 10.3819,-1.35416 18.7326,5.86805 8.125,6.77083 8.125,17.15277 z m 89.1492,-238.10751 q 0,0 -6.9965,135.1909 -0.9028,10.60763 -8.125,17.60416 -7.8993,6.99652 -18.5069,6.99652 -10.6077,0 -18.7327,-6.99652 -7.4479,-6.99653 -8.125,-17.60416 l -6.9965,-135.1909 q -0.4514,-11.51041 7.4479,-19.63541 7.448,-8.125 18.9584,-8.35069 h 14.6701 q 11.5104,0 18.9583,8.35069 8.3507,8.125 7.4479,19.63541 z m -6.5451,252.10056 q -10.6076,11.51041 -26.8576,11.51041 -16.0243,0 -27.5347,-11.28471 -11.5105,-11.28472 -11.5105,-27.08332 0,-15.79861 11.5105,-27.30902 11.5104,-11.7361 27.5347,-11.7361 16.0243,0 26.8576,11.51041 11.5104,11.05902 11.5104,27.30901 0,16.0243 -11.5104,27.08332 z"
     id="text1"
     aria-label="MQDic!" />
</svg>
