<?xml version="1.0" encoding="UTF-8" standalone="no"?>
<svg
   height="512"
   width="1550"
   viewBox="0 0 2066.6666 682.66667"
   version="1.1"
   id="svg1"
   sodipodi:docname="logo-petit.svg"
   inkscape:version="1.4 (e7c3feb100, 2024-10-09)"
   inkscape:export-filename="logo-petit-export.svg"
   inkscape:export-xdpi="96"
   inkscape:export-ydpi="96"
   xmlns:inkscape="http://www.inkscape.org/namespaces/inkscape"
   xmlns:sodipodi="http://sodipodi.sourceforge.net/DTD/sodipodi-0.dtd"
   xmlns="http://www.w3.org/2000/svg"
   xmlns:svg="http://www.w3.org/2000/svg">
  <defs
     id="defs1" />
  <sodipodi:namedview
     id="namedview1"
     pagecolor="#ffffff"
     bordercolor="#999999"
     borderopacity="1"
     inkscape:showpageshadow="false"
     inkscape:pageopacity="0"
     inkscape:pagecheckerboard="true"
     inkscape:deskcolor="#d1d1d1"
     inkscape:zoom="0.686875"
     inkscape:cx="767.97088"
     inkscape:cy="254.77707"
     inkscape:window-width="1866"
     inkscape:window-height="1011"
     inkscape:window-x="0"
     inkscape:window-y="0"
     inkscape:window-maximized="1"
     inkscape:current-layer="svg1" />
  <path
     fill="#ff8c2e"
     d="m 177.93333,131.58333 c 7.9,-15.8 1.5,-34.999996 -14.3,-42.899996 -15.8,-7.9 -35,-1.5 -42.9,14.299996 l -85.899995,171.7 c -8.9,17.8 -13.5,37.4 -13.5,57.3 v 9.3 c 0,70.7 57.3,128 127.999995,128 h 72 8 v -0.3 c 35.2,-2.7 65.4,-22.8 82.1,-51.7 8.8,-15.3 3.60001,-34.9 -11.7,-43.7 -15.3,-8.8 -34.9,-3.6 -43.69999,11.7 -7,12 -19.9,20 -34.7,20 -22.1,0 -40,-17.9 -40,-40 0,-22.1 17.9,-40 40,-40 14.8,0 27.7,8 34.7,20 8.8,15.3 28.39999,20.5 43.69999,11.7 15.30001,-8.8 20.5,-28.4 11.7,-43.7 -12.8,-22.1 -33.6,-39.1 -58.4,-47.1 l 80.8,-22 c 17,-4.6 27.1,-22.2 22.5,-39.3 -4.6,-17.1 -22.2,-27.1 -39.3,-22.5 l -100.8,27.5 81.6,-68 c 13.6,-11.3 15.4,-31.5 4.1,-45.099996 -11.3,-13.6 -31.5,-15.4 -45.1,-4.1 l -101.9,84.899996 z m 326.8,419.4 c -7.9,15.8 -1.5,35 14.3,42.9 15.8,7.9 35,1.5 42.9,-14.3 l 85.9,-171.7 c 8.9,-17.8 13.5,-37.4 13.5,-57.2 v -9.3 c 0,-70.7 -57.3,-128 -128,-128 h -72 -8 v 0.3 c -35.2,2.7 -65.4,22.8 -82.1,51.7 -8.9,15.3 -3.6,34.9 11.7,43.7 15.3,8.8 34.9,3.6 43.7,-11.7 7,-12 19.9,-20 34.7,-20 22.1,0 40,17.9 40,40 0,22.1 -17.9,40 -40,40 -14.8,0 -27.7,-8 -34.7,-20 -8.9,-15.3 -28.4,-20.5 -43.7,-11.7 -15.3,8.8 -20.5,28.4 -11.7,43.7 12.8,22.1 33.6,39.1 58.4,47.1 l -80.8,22 c -17.1,4.7 -27.1,22.2 -22.5,39.3 4.6,17.1 22.2,27.1 39.3,22.5 l 100.7,-27.5 -81.6,68 c -13.6,11.30001 -15.4,31.5 -4.1,45.1 11.3,13.6 31.5,15.4 45.1,4.1 l 101.9,-84.89999 -23,46 z"
     id="path1"
     style="fill:#1967d2;fill-opacity:1" />
  <text
     xml:space="preserve"
     style="font-size:53.3333px;line-height:1.25;font-family:sans-serif;fill:#1967d2;fill-opacity:1;stroke-width:1.33333"
     x="692.07117"
     y="478.62692"
     id="text1"><tspan
       sodipodi:role="line"
       id="tspan1"
       style="font-style:normal;font-variant:normal;font-weight:normal;font-stretch:normal;font-size:462.222px;font-family:Dyuthi;-inkscape-font-specification:'Dyuthi, Normal';font-variant-ligatures:normal;font-variant-caps:normal;font-variant-numeric:normal;font-variant-east-asian:normal;fill:#1967d2;fill-opacity:1;stroke-width:1.33333"
       x="692.07117"
       y="478.62692">MQDic!</tspan></text>
</svg>
