<?xml version="1.0" encoding="UTF-8" standalone="no"?>
<svg
   height="512"
   width="1930"
   viewBox="0 0 2573.3333 682.66667"
   version="1.1"
   id="svg1"
   xmlns="http://www.w3.org/2000/svg"
   xmlns:svg="http://www.w3.org/2000/svg">
  <defs
     id="defs1" />
  <path
     fill="#ff8c2e"
     d="m 177.93333,131.58333 c 7.9,-15.8 1.5,-34.999999 -14.3,-42.899999 -15.8,-7.9 -35,-1.5 -42.9,14.299999 l -85.899995,171.7 c -8.9,17.8 -13.5,37.4 -13.5,57.3 v 9.3 c 0,70.7 57.3,128 127.999995,128 h 72 8 v -0.3 c 35.2,-2.7 65.4,-22.8 82.1,-51.7 8.8,-15.3 3.60001,-34.9 -11.7,-43.7 -15.3,-8.8 -34.9,-3.6 -43.69999,11.7 -7,12 -19.9,20 -34.7,20 -22.1,0 -40,-17.9 -40,-40 0,-22.1 17.9,-40 40,-40 14.8,0 27.7,8 34.7,20 8.8,15.3 28.39999,20.5 43.69999,11.7 15.30001,-8.8 20.5,-28.4 11.7,-43.7 -12.8,-22.1 -33.6,-39.1 -58.4,-47.1 l 80.8,-22 c 17,-4.6 27.1,-22.2 22.5,-39.3 -4.6,-17.1 -22.2,-27.1 -39.3,-22.5 l -100.8,27.5 81.6,-68 c 13.6,-11.3 15.4,-31.5 4.1,-45.099999 -11.3,-13.6 -31.5,-15.4 -45.1,-4.1 l -101.9,84.899999 z m 326.8,419.4 c -7.9,15.8 -1.5,35 14.3,42.9 15.8,7.9 35,1.5 42.9,-14.3 l 85.9,-171.7 c 8.9,-17.8 13.5,-37.4 13.5,-57.2 v -9.3 c 0,-70.7 -57.3,-128 -128,-128 h -72 -8 v 0.3 c -35.2,2.7 -65.4,22.8 -82.1,51.7 -8.9,15.3 -3.6,34.9 11.7,43.7 15.3,8.8 34.9,3.6 43.7,-11.7 7,-12 19.9,-20 34.7,-20 22.1,0 40,17.9 40,40 0,22.1 -17.9,40 -40,40 -14.8,0 -27.7,-8 -34.7,-20 -8.9,-15.3 -28.4,-20.5 -43.7,-11.7 -15.3,8.8 -20.5,28.4 -11.7,43.7 12.8,22.1 33.6,39.1 58.4,47.1 l -80.8,22 c -17.1,4.7 -27.1,22.2 -22.5,39.3 4.6,17.1 22.2,27.1 39.3,22.5 l 100.7,-27.5 -81.6,68 c -13.6,11.30001 -15.4,31.5 -4.1,45.1 11.3,13.6 31.5,15.4 45.1,4.1 l 101.9,-84.89999 -23,46 z"
     id="path1"
     style="fill:#1967d2;fill-opacity:1" />
  <path
     style="fill:#1967d2;fill-opacity:1;stroke-width:1.33333"
     d="m 777.88155,302.58162 3.29862,137.15295 q 0.17361,9.37501 -6.59723,16.14585 -6.77084,6.59723 -16.31947,6.59723 h -3.81945 q -9.02779,0 -15.79863,-6.94445 -6.94445,-6.94445 -6.94445,-15.79863 V 287.47743 q 0,-17.70835 12.3264,-30.20837 12.32641,-12.3264 30.20838,-12.3264 h 0.52083 q 14.06252,0 25.34725,8.33334 11.28474,8.33335 15.2778,22.04864 l 36.11116,125.52099 35.76393,-125.17377 q 3.81945,-13.71529 15.2778,-22.22225 11.45834,-8.68056 25.69447,-8.50695 h 0.52084 q 17.53474,0 29.86115,12.3264 12.67362,12.32641 12.67362,30.20837 v 152.25714 q 0,9.2014 -7.11806,15.97224 -7.11807,6.77084 -19.27086,6.77084 h -0.34722 q -9.54862,0 -16.31947,-6.59723 -6.77084,-6.77084 -6.77084,-16.14585 l 3.12501,-137.15295 -37.67366,133.3335 q -3.29862,11.80557 -13.54169,19.27086 -10.24306,7.29167 -21.87502,7.29167 h -0.69445 q -11.97918,0 -21.70142,-7.46528 -9.89584,-7.6389 -13.19446,-19.09725 z M 1017.6388,461.6096 q -10.7639,0 -18.40281,-7.46529 -7.46528,-7.6389 -7.46528,-18.4028 V 333.31083 q 0,-10.76391 7.6389,-18.40281 7.81249,-7.63889 18.22919,-7.63889 h 0.3472 q 10.4167,0 18.0556,7.63889 7.6389,7.6389 7.6389,18.40281 v 102.43068 q 0,10.7639 -7.6389,18.4028 -7.6389,7.6389 -18.0556,7.46529 z m 23.9584,-195.48636 q 0,11.28474 -7.9862,19.09725 -7.8125,7.81251 -18.75,7.81251 -11.1111,0 -18.75001,-7.81251 -7.6389,-7.81251 -7.81251,-19.09725 0,-11.28473 7.81251,-18.92363 7.63891,-7.81251 18.75001,-7.6389 10.7639,0 18.75,7.46529 7.9862,7.63889 7.9862,19.09724 z m 83.8542,42.53478 q 10.0695,-7.11807 36.632,-7.11807 4.8612,0 7.4653,3.47223 2.6042,3.47223 1.7361,7.6389 l -3.4722,16.14585 q -2.4306,15.45141 -11.9792,14.06252 -15.9722,-2.60417 -28.4722,6.25001 -12.5,8.85417 -12.6737,20.31252 v 0.34722 h -0.3472 v 67.18759 q 0,9.72223 -7.118,17.01391 -7.1181,7.29167 -17.3612,7.29167 h -0.5208 q -10.0695,0 -17.1875,-6.94445 -6.9445,-7.11806 -6.9445,-17.36113 V 326.7136 q 0,-10.06946 7.2917,-17.36114 7.2917,-7.11806 17.1875,-7.11806 h 0.8681 q 12.6736,0 24.4792,18.05558 5.3819,-8.15974 10.4166,-11.63196 z m 111.1113,69.61814 q 0,0 0,11.45835 0,18.05558 9.5486,30.7292 9.5486,12.67363 23.0903,12.32641 7.9861,0.86805 16.1459,-1.56251 16.493,-5.72917 16.493,-25.00003 0,0 0,-58.68063 -3.125,-9.89584 -18.0555,-15.4514 -14.9306,-5.72918 -31.0765,1.90972 -16.1458,7.46529 -16.1458,44.27089 z m -25.3473,59.89591 q -22.2222,-23.43753 -22.2222,-56.5973 0,-33.33337 22.2222,-56.7709 22.2223,-23.43753 53.8195,-23.43753 26.5626,0 36.8056,23.43753 0,-7.6389 5.7292,-13.36807 5.0347,-5.03473 12.6736,-5.03473 h 13.3681 q 7.6389,0 13.0209,5.03473 5.3819,5.72917 5.3819,13.36807 v 126.73627 q 0,4.51389 -3.125,7.29168 -2.9514,2.77778 -7.1181,2.77778 h -20.8333 q -4.5139,0 -10.4167,-6.25001 -5.9028,-6.25001 -10.5903,-6.94445 -4.6875,-0.69445 -8.8542,2.08333 -17.1875,11.11113 -26.0417,11.11113 -31.5972,0 -53.8195,-23.43753 z m 288.8128,-65.7987 q 0,0 0,22.74309 0,11.45835 4.3403,21.18058 4.5139,9.89585 12.1528,13.7153 15.7987,7.63889 30.382,1.5625 14.5834,-6.25001 18.4028,-15.62502 V 355.8803 q 0,-19.61808 -16.4931,-25.00003 -7.9861,-2.77778 -16.1458,-1.73612 -13.5417,0 -23.0903,12.50002 -9.5487,12.3264 -9.5487,30.7292 z m 65.2779,78.47232 q -17.1875,10.06946 -36.8056,10.24307 -31.5973,0 -53.8195,-23.43753 -22.2223,-23.43753 -22.2223,-56.7709 0,-33.33338 22.2223,-56.7709 22.2222,-23.43753 53.8195,-23.43753 19.6181,0 36.8056,10.24306 0,-3.81945 2.7778,-7.11806 2.7778,-3.125 7.2917,-3.125 h 29.8611 q 3.9931,0 6.9445,2.60417 3.125,2.60417 3.125,7.63889 v 194.09747 q 0,10.7639 -6.9445,17.70835 -7.1181,7.11807 -17.7083,6.94446 h -0.6945 q -10.2431,0 -17.0139,-6.94446 -7.6389,-7.63889 -7.6389,-17.70835 z m 71.5279,-65.27785 q 0,0 0,-63.02092 0,-7.98612 6.9444,-14.93057 4.8612,-4.86112 17.1876,-4.68751 h 0.5208 q 12.3264,0 17.1875,4.68751 6.9445,6.94445 6.9445,14.93057 v 66.49314 q 0,23.43753 15.2778,30.72921 18.4028,9.02779 33.507,-0.17361 15.1041,-9.02779 15.7986,-22.74309 v -72.0487 q 0,-10.24307 7.2917,-17.18752 5.0347,-4.86112 17.5347,-4.68751 h 0.5208 q 12.3264,0 17.1876,4.68751 6.9444,6.94445 6.9444,17.18752 V 446.3318 q 0,6.42362 -4.5139,11.11113 -4.3403,4.6875 -11.2847,4.6875 H 1765.48 q -6.25,0 -11.1111,-5.03473 -4.8612,-5.20834 -4.6876,-10.7639 -62.3264,36.8056 -94.4445,-3.81945 -18.4028,-23.43753 -18.4028,-56.94451 z m 296.8753,-105.7293 q 1.2153,1.90972 0.5208,3.81945 -0.5208,1.90972 -2.6041,1.90972 h -32.1181 q -1.9097,0 -3.8195,-1.38889 l -30.9028,-23.95836 q -4.5139,-3.12501 -3.2986,-7.98612 0.6944,-4.16668 5.7292,-4.16668 h 34.2014 q 4.5139,0.17361 7.6389,3.29862 z m -30.5556,51.04173 q -4.1667,-0.34723 -16.6667,7.29167 -5.7291,3.12501 -15.9722,27.08337 0,0 76.0417,0 -5.7291,-20.83336 -19.0972,-27.6042 -13.1945,-6.77084 -24.3056,-6.77084 z m -54.3403,-6.25001 q 23.4375,-23.61114 56.25,-22.9167 32.9862,0.52084 55.2084,22.74309 22.2223,22.22225 22.2223,57.11812 v 0.17362 q 0,14.58335 -14.0625,14.58335 h -96.5279 q 4.5139,12.67362 16.1458,20.48613 11.8056,7.81251 16.8403,7.46529 l 44.2709,-3.125 q 8.8542,-0.69445 14.4098,6.77084 5.5555,7.46529 3.6458,15.62502 l -0.3472,0.34722 q -2.6042,10.41668 -16.4931,12.67363 -25.3473,3.81945 -50.3473,4.6875 -25,1.04167 -49.8264,-22.74308 -24.6528,-23.78475 -24.6528,-56.94452 0,-33.33337 23.2639,-56.94451 z m 280.4796,44.27089 q 0,0 0,20.83336 0,18.05558 9.375,30.7292 9.5486,12.67363 23.6111,12.32641 7.6389,0.86805 15.7986,-1.56251 16.4931,-5.72917 16.8403,-25.00003 0,0 0,-58.68063 -3.4722,-9.89584 -18.4028,-15.4514 -14.9305,-5.72918 -30.7292,1.90972 -7.6389,3.47223 -12.1528,13.19446 -4.3402,9.89585 -4.3402,21.70142 z m 28.4722,-67.53481 q 19.6181,0 37.1528,10.06946 v -52.25701 q -0.1736,-10.06946 7.1181,-17.36113 7.2917,-7.29168 17.5347,-7.29168 h 0.6945 q 10.0694,0 17.3611,7.29168 7.2917,7.29167 7.2917,17.36113 v 192.36135 q 0.3472,3.81945 -2.9514,6.94445 -3.125,3.12501 -7.2917,3.12501 h -29.6875 q -4.5139,0 -7.4653,-3.12501 -2.9514,-3.125 -2.6042,-6.94445 -17.3611,10.06946 -37.1528,10.06946 -31.5973,0 -53.8195,-23.43753 -22.2223,-23.43753 -22.2223,-56.5973 0,-33.33337 22.2223,-56.7709 22.2222,-23.43753 53.8195,-23.43753 z m 133.8543,160.24326 q -10.7639,0 -18.4028,-7.46529 -7.4653,-7.6389 -7.4653,-18.4028 V 333.31083 q 0,-10.76391 7.6389,-18.40281 7.8125,-7.63889 18.2292,-7.63889 h 0.3472 q 10.4167,0 18.0556,7.63889 7.6389,7.6389 7.6389,18.40281 v 102.43068 q 0,10.7639 -7.6389,18.4028 -7.6389,7.6389 -18.0556,7.46529 z m 23.9583,-195.48636 q 0,11.28474 -7.9861,19.09725 -7.8125,7.81251 -18.75,7.81251 -11.1111,0 -18.75,-7.81251 -7.6389,-7.81251 -7.8125,-19.09725 0,-11.28473 7.8125,-18.92363 7.6389,-7.81251 18.75,-7.6389 10.7639,0 18.75,7.46529 7.9861,7.63889 7.9861,19.09724 z m 148.4378,175.86828 q 0,0 0,0.69444 0,6.0764 -3.125,10.7639 -7.1181,9.54863 -34.2015,9.54863 -36.1111,0 -61.8056,-23.43753 -25.6945,-23.43753 -25.6945,-56.59729 0,-33.15977 25.6945,-56.5973 25.6945,-23.43753 61.8056,-23.43753 12.6737,0.34723 24.6528,3.47223 12.6737,4.16667 12.6737,17.18752 v 1.21528 q 0,8.85418 -6.25,13.88891 -6.9445,5.03473 -19.7917,2.60417 -12.8473,-2.60417 -29.1667,3.81945 -9.2014,3.47222 -14.5834,13.19446 -5.5555,9.89584 -5.5555,21.5278 v 1.90973 q 0,17.70835 11.9791,30.55559 11.9792,12.67363 28.1251,12.67363 6.5972,0.69444 14.5833,-0.69445 7.9861,-1.04167 14.4098,4.5139 6.25,5.20834 6.25,13.19446 z m 68.5765,-183.15995 q 0,0 -5.382,103.99318 -0.6944,8.15973 -6.25,13.54168 -6.0764,5.38196 -14.2361,5.38196 -8.1598,0 -14.4098,-5.38196 -5.7291,-5.38195 -6.25,-13.54168 l -5.3819,-103.99318 q -0.3472,-8.85418 5.7292,-15.10419 5.7291,-6.25001 14.5833,-6.42362 h 11.2847 q 8.8542,0 14.5834,6.42362 6.4236,6.25001 5.7292,15.10419 z m -5.0348,193.92385 q -8.1597,8.85418 -20.6597,8.85418 -12.3264,0 -21.1806,-8.68057 -8.8542,-8.68057 -8.8542,-20.83336 0,-12.15279 8.8542,-21.00697 8.8542,-9.02779 21.1806,-9.02779 12.3264,0 20.6597,8.85418 8.8542,8.50695 8.8542,21.00697 0,12.3264 -8.8542,20.83336 z"
     id="text1"
     aria-label="Mira què dic!" />
</svg>
